<?xml version="1.0" encoding="UTF-8" standalone="no"?>
<svg
   height="24px"
   viewBox="0 -960 960 960"
   width="24px"
   fill="#e3e3e3"
   version="1.1"
   id="svg4"
   sodipodi:docname="favourite-filled.svg"
   inkscape:version="1.2.2 (732a01da63, 2022-12-09)"
   xmlns:inkscape="http://www.inkscape.org/namespaces/inkscape"
   xmlns:sodipodi="http://sodipodi.sourceforge.net/DTD/sodipodi-0.dtd"
   xmlns="http://www.w3.org/2000/svg"
   xmlns:svg="http://www.w3.org/2000/svg">
  <defs
     id="defs8" />
  <sodipodi:namedview
     id="namedview6"
     pagecolor="#ffffff"
     bordercolor="#000000"
     borderopacity="0.25"
     inkscape:showpageshadow="2"
     inkscape:pageopacity="0.0"
     inkscape:pagecheckerboard="0"
     inkscape:deskcolor="#d1d1d1"
     showgrid="false"
     inkscape:zoom="42.791667"
     inkscape:cx="7.7000974"
     inkscape:cy="12"
     inkscape:window-width="2560"
     inkscape:window-height="1351"
     inkscape:window-x="-9"
     inkscape:window-y="-9"
     inkscape:window-maximized="1"
     inkscape:current-layer="svg4" />
  <path
     d="m480-120-58-52q-101-91-167-157T150-447.5Q111-500 95.5-544T80-634q0-94 63-157t157-63q52 0 99 22t81 62q34-40 81-62t99-22q94 0 157 63t63 157q0 46-15.5 90T810-447.5Q771-395 705-329T538-172l-58 52Zm0-108q96-86 158-147.5t98-107q36-45.5 50-81t14-70.5q0-60-40-100t-100-40q-47 0-87 26.5T518-680h-76q-15-41-55-67.5T300-774q-60 0-100 40t-40 100q0 35 14 70.5t50 81q36 45.5 98 107T480-228Zm0-273Z"
     id="path2" />
  <path
     style="display:none;fill:#c70303;fill-opacity:1;stroke-width:75.5904"
     d="m 300,-853.98438 c 34.66663,0 67.65107,7.28648 98.98438,21.95313 31.3333,14.66665 58.34898,35.36461 81.01562,62.03125 22.66664,-26.66664 49.68232,-47.3646 81.01562,-62.03125 31.33331,-14.66665 64.31775,-21.95313 98.98438,-21.95313 62.6666,0 115.03129,20.9688 157.03125,62.96876 41.99996,41.99995 62.96875,94.36464 62.96875,157.03124 0,30.66664 -5.13543,60.6667 -15.46875,90 -10.33332,29.33331 -28.53128,61.48441 -54.53125,96.48438 -25.99997,34.99996 -61.00004,74.51567 -105,118.51562 -43.99996,43.99996 -99.69798,96.28652 -167.03125,156.95313 L 480,-120 422.03125,-172.03125 C 354.69798,-232.69786 298.99996,-284.98442 255,-328.98438 211.00004,-372.98433 175.99997,-412.50004 150,-447.5 124.00003,-482.49997 105.80207,-514.65107 95.46875,-543.98438 85.135427,-573.31768 80,-603.31774 80,-633.98438 c 0,-62.6666 20.96879,-115.03129 62.96875,-157.03124 41.99996,-41.99996 94.36465,-62.96876 157.03125,-62.96876 z"
     id="path351"
     inkscape:label="hearth-filled" />
  <path
     style="fill:#c70303;stroke-width:75.5904;fill-opacity:1"
     d="m 300,-773.98438 c -39.99996,0 -73.33336,13.33336 -100,40 -26.66664,26.66665 -40,60.00004 -40,100 0,23.33331 4.65105,46.80211 13.98438,70.46876 9.33332,23.66664 26.00002,50.68232 50,81.01562 23.99997,30.3333 56.71358,66.03129 98.04687,107.03125 41.33329,40.99996 93.96881,90.16672 157.96875,147.5 63.99994,-57.33328 116.63546,-106.50004 157.96875,-147.5 41.33329,-40.99996 74.0469,-76.69795 98.04687,-107.03125 23.99998,-30.3333 40.66668,-57.34898 50,-81.01562 C 795.34895,-587.18227 800,-610.65107 800,-633.98438 c 0,-39.99995 -13.33336,-73.33335 -40,-100 -26.66664,-26.66664 -60.00004,-40 -100,-40 -31.3333,0 -60.36461,8.81773 -87.03125,26.48438 -26.66664,17.66665 -45.00001,40.16669 -55,67.5 h -75.9375 c -9.99999,-27.33331 -28.33336,-49.83335 -55,-67.5 C 360.36461,-765.16665 331.3333,-773.98438 300,-773.98438 Z"
     id="path353" />
</svg>
