<?xml version="1.0" encoding="UTF-8" standalone="no"?>
<svg
   height="24px"
   viewBox="0 -960 960 960"
   width="24px"
   fill="#e8eaed"
   version="1.1"
   id="svg4"
   sodipodi:docname="favourite-filled.svg"
   inkscape:version="1.2.2 (732a01da63, 2022-12-09)"
   xmlns:inkscape="http://www.inkscape.org/namespaces/inkscape"
   xmlns:sodipodi="http://sodipodi.sourceforge.net/DTD/sodipodi-0.dtd"
   xmlns="http://www.w3.org/2000/svg"
   xmlns:svg="http://www.w3.org/2000/svg">
  <defs
     id="defs8" />
  <sodipodi:namedview
     id="namedview6"
     pagecolor="#ffffff"
     bordercolor="#000000"
     borderopacity="0.25"
     inkscape:showpageshadow="2"
     inkscape:pageopacity="0.0"
     inkscape:pagecheckerboard="0"
     inkscape:deskcolor="#d1d1d1"
     showgrid="false"
     inkscape:zoom="30.258278"
     inkscape:cx="5.9487853"
     inkscape:cy="14.227512"
     inkscape:window-width="1920"
     inkscape:window-height="991"
     inkscape:window-x="-9"
     inkscape:window-y="-9"
     inkscape:window-maximized="1"
     inkscape:current-layer="svg4" />
  <path
     style="fill:#ff0000;stroke-width:75.5904;stroke:#ffffff"
     d="m 300.00004,-774 c -39.99996,0 -73.33336,13.33336 -100,40 -26.66664,26.66665 -40,60.00004 -40,100 0,23.33331 4.65105,46.80211 13.98438,70.46876 9.33332,23.66664 26.00002,50.68232 50,81.01562 23.99997,30.3333 56.71358,66.03129 98.04687,107.03125 41.33329,40.99996 93.96881,90.16672 157.96875,147.5 63.99994,-57.33328 116.63546,-106.50004 157.96875,-147.5 41.33329,-40.99996 74.0469,-76.69795 98.04687,-107.03125 23.99998,-30.3333 40.66664,-57.34898 50.00004,-81.01562 C 795.349,-587.19789 800,-610.66669 800,-634 c 0,-39.99995 -13.3333,-73.33335 -39.99996,-100 -26.66664,-26.66664 -60.00004,-40 -100,-40 -31.3333,0 -60.36461,8.81773 -87.03125,26.48438 -26.66664,17.66665 -45.00001,40.16669 -55,67.5 h -75.9375 c -9.99999,-27.33331 -28.33336,-49.83335 -55,-67.5 C 360.36465,-765.18227 331.33334,-774 300.00004,-774 Z"
     id="path405" />
</svg>
